<?xml version="1.0" encoding="UTF-8" standalone="no"?>
<svg
   xmlns:dc="http://purl.org/dc/elements/1.1/"
   xmlns:cc="http://creativecommons.org/ns#"
   xmlns:rdf="http://www.w3.org/1999/02/22-rdf-syntax-ns#"
   xmlns:svg="http://www.w3.org/2000/svg"
   xmlns="http://www.w3.org/2000/svg"
   xmlns:sodipodi="http://sodipodi.sourceforge.net/DTD/sodipodi-0.dtd"
   xmlns:inkscape="http://www.inkscape.org/namespaces/inkscape"
   viewBox="0 0 149.051 135.22475"
   version="1.1"
   id="svg4"
   sodipodi:docname="communo-logo-white.svg"
   width="149.05099"
   height="135.22475"
   inkscape:version="0.92.5 (2060ec1f9f, 2020-04-08)">
  <metadata
     id="metadata10">
    <rdf:RDF>
      <cc:Work
         rdf:about="">
        <dc:format>image/svg+xml</dc:format>
        <dc:type
           rdf:resource="http://purl.org/dc/dcmitype/StillImage" />
      </cc:Work>
    </rdf:RDF>
  </metadata>
  <defs
     id="defs8" />
  <sodipodi:namedview
     pagecolor="#ffffff"
     bordercolor="#666666"
     borderopacity="1"
     objecttolerance="10"
     gridtolerance="10"
     guidetolerance="10"
     inkscape:pageopacity="0"
     inkscape:pageshadow="2"
     inkscape:window-width="1637"
     inkscape:window-height="652"
     id="namedview6"
     showgrid="false"
     inkscape:zoom="0.89022007"
     inkscape:cx="42.621092"
     inkscape:cy="34.947381"
     inkscape:window-x="0"
     inkscape:window-y="0"
     inkscape:window-maximized="0"
     inkscape:current-layer="svg4" />
  <path
     d="m 44.708,73.982369 0.031,-0.014 29.786,17.197 74.025,-42.75 v -5.1 L 74.525,0.57736934 0.5,43.327369 v 6.262 L 74.525,6.8393693 141.02,45.231369 l -0.04,0.012 1.082,0.624 0.029,-0.017 0.028,0.016 -14.053,8.113 -2.9,-1.687 -0.013,0.006 -50.628,-29.233 -74.025,42.75 v 6.262 l 74.025,-42.75 44.516,25.704 -0.016,0.007 3.584,2.081 0.024,-0.014 0.01,0.006 -12.755,7.364 -35.363,-20.417 -74.025,42.75 v 5.1 L 74.525,134.64737 148.55,91.897369 v -6.262 L 74.525,128.38537 8.006,89.979369 l 0.009,-0.003 -1.085,-0.619 13.038,-7.527 2.891,1.708 0.021,-0.009 51.643,30.132001 74.028,-42.751001 v -6.262 L 74.529,107.39637 28.997,80.805369 l 0.002,-0.001 -3.609,-2.105 13.771,-7.951 z m 29.826,-23.656 23.601,13.627 -0.006,0.003 6.336,3.652 -29.949,17.29 -23.641,-13.65 0.004,-0.002 -6.294,-3.63 z"
     id="path2"
     style="fill:#000000;fill-opacity:1;stroke:#000000;stroke-opacity:1"
     inkscape:connector-curvature="0"
     sodipodi:nodetypes="cccccccccccccccccccccccccccccccccccccccccccccccccccccccccc" />
</svg>
