<?xml version="1.0" encoding="utf-8"?>
<!-- Generator: Adobe Illustrator 23.1.1, SVG Export Plug-In . SVG Version: 6.00 Build 0)  -->
<svg version="1.1" id="Layer_1" xmlns="http://www.w3.org/2000/svg" xmlns:xlink="http://www.w3.org/1999/xlink" x="0px" y="0px"
	 viewBox="0 0 307.84 188.29" style="enable-background:new 0 0 307.84 188.29;" xml:space="preserve">
<style type="text/css">
	.st0{fill:#1C1C1C;}
	.st1{fill:#333333;}
	.st2{fill:#444444;}
	.st3{fill:#4C4C4C;}
</style>
<g>
	<path class="st0" d="M96.56,156.53c0-3.15,0-6.3,0-9.45c0.08-0.44,0.2-0.89,0.2-1.33c0.42-25.29,0.93-50.58,1.19-75.88
		c0.2-19,0.11-38,0.1-57c0-1.6,0.44-2.95,1.66-3.9c1.18-0.93,2.44-1.88,3.82-2.4c2.6-0.99,5.3-1.75,7.99-2.46
		c21.88-5.87,43.74-5.28,65.45,0.83c18.99,5.33,35.89,14.73,51.12,27.19c7.18,5.87,13.71,12.41,19.78,19.41
		c4.94,5.68,10.53,10.53,16.93,14.51c3.47,2.15,6.58,4.79,8.66,8.41c1.71,2.97,2.45,6.07,1.41,9.48c-2.71-0.8-3.3-1.44-6.49-6.95
		c-0.34,0.74-0.79,1.27-0.8,1.82c-0.01,0.94,0.09,1.94,0.39,2.83c2.15,6.19,5.87,11.36,10.77,15.64c6.44,5.63,13.95,9.2,22.25,11.1
		c2.25,0.52,4.55,0.85,6.82,1.27c-16.77,3.66-32,0.37-45.8-10.06c0.23,1.28,0.5,2.53,1.13,3.53c0.89,1.41,2.04,2.64,3.09,3.96
		c2.87,3.61,2.82,6.01-0.71,8.88c-3.73,3.04-7.76,5.72-11.62,8.6c-2.92,2.2-5.92,4.32-8.62,6.76c-3.68,3.33-6.33,7.39-7.35,12.36
		c-0.39,1.87-1.64,3.12-3.28,3.98c-3.07,1.6-6.13,1.23-9.03-0.38c-3.85-2.13-7.25-4.88-10.09-8.26c-1.64-1.96-2.45-4.23-2.17-6.91
		c1.18-10.97-8.08-19.56-18.91-17.58c-3.3,0.61-6.17,2.08-8.57,4.66c2.86,1.26,4.23,3.52,4.85,6.25c0.83,3.65,0.43,7.25-1.36,10.5
		c-1.66,3.01-3.77,5.77-5.59,8.69c-1.51,2.45-3.32,4.84-4.2,7.52c-1.38,4.14-4.05,6.76-8.01,7.84c-5.91,1.61-11.9,2.96-17.92,4.14
		c-2.9,0.57-5.92,0.52-9.11,0.77c0.17-0.91,0.23-1.46,0.37-1.98c1.54-5.47,3.09-10.94,4.65-16.4c0.17-0.58,0.37-1.17,0.66-1.69
		c1.07-1.88,1.82-2.07,3.82-1.31c3.92,1.5,7.8,1.65,11.2-1.23c2.4-2.03,3.04-4.75,2.22-7.75c-0.77-2.82-2.88-4.14-5.65-4.28
		c-3.34-0.17-6.71-0.18-10.05-0.17c-4.83,0.03-9.65,0.09-14.47,0.22c-1.92,0.05-3.26,1-4.18,2.79c-2.74,5.37-5.66,10.67-8.4,16.05
		c-1.14,2.25-2.12,4.61-2.92,7c-0.84,2.48-0.75,4.99,0.56,7.38c2.83,5.18,5.04,10.63,6.72,16.3c0.8,2.71,1.45,5.45,2.18,8.23
		c-0.48,0.09-0.67,0.17-0.88,0.17c-7.67,0.04-15.34,0.1-23.02,0.08c-1.08,0-2.25-0.27-3.23-0.72c-1.87-0.88-2.35-2.73-1.47-4.61
		c0.38-0.81,0.74-1.68,0.93-2.57c0.76-3.39-0.22-6.53-1.54-9.6C100.04,166.1,97.22,161.72,96.56,156.53z"/>
</g>
<rect x="62.91" y="42.39" class="st1" width="21.84" height="145.9"/>
<rect x="31.45" y="84.87" class="st2" width="21.84" height="103.41"/>
<rect y="127.8" class="st3" width="21.84" height="60.48"/>
</svg>
